<svg id="Layer_1" data-name="Layer 1" xmlns="http://www.w3.org/2000/svg" viewBox="0 0 240.1 217.84"><defs><style>.cls-1,.cls-3,.cls-5{fill:#fff;}.cls-1,.cls-3{stroke:#2258a7;stroke-linejoin:round;}.cls-1{stroke-width:3.19px;}.cls-2{font-size:34.82px;fill:#e04bf8;font-family:OpenSans-Bold, Open Sans;font-weight:700;}.cls-3,.cls-4,.cls-5{stroke-linecap:round;stroke-width:4px;}.cls-4{fill:none;stroke:#d1e3f4;}.cls-4,.cls-5{stroke-miterlimit:10;}.cls-5{stroke:#e04bf8;}</style></defs><path class="cls-1" d="M12.24,38.16,81.32,13.85l28.42,13.62,34.05,96.76a3.19,3.19,0,0,1-1.95,4.06L54.75,158.94A3.19,3.19,0,0,1,50.69,157L10.3,42.22A3.18,3.18,0,0,1,12.24,38.16Z"/><path class="cls-1" d="M12.24,38.16,81.32,13.85l7.4,21,21-7.4,34.05,96.76a3.19,3.19,0,0,1-1.95,4.06L54.75,158.94A3.19,3.19,0,0,1,50.69,157L10.3,42.22A3.18,3.18,0,0,1,12.24,38.16Z"/><text class="cls-2" transform="translate(35.3 90.2) rotate(-19.39)">.json</text><rect class="cls-3" x="86.71" y="91.42" width="140.14" height="112.61" rx="7.75"/><line class="cls-3" x1="86.71" y1="121.8" x2="226.86" y2="121.8"/><line class="cls-3" x1="86.71" y1="108.16" x2="226.86" y2="108.16"/><line class="cls-3" x1="86.71" y1="138.67" x2="226.86" y2="138.67"/><line class="cls-3" x1="86.71" y1="155.53" x2="226.86" y2="155.53"/><line class="cls-3" x1="86.71" y1="172.4" x2="226.86" y2="172.4"/><line class="cls-3" x1="86.71" y1="189.26" x2="226.86" y2="189.26"/><line class="cls-3" x1="135.3" y1="121.8" x2="135.3" y2="204.03"/><line class="cls-3" x1="189.94" y1="109.24" x2="189.94" y2="204.03"/><line class="cls-4" x1="98.46" y1="128.76" x2="120.56" y2="128.76"/><line class="cls-5" x1="98.46" y1="114.98" x2="179.51" y2="114.98"/><line class="cls-4" x1="98.46" y1="147.1" x2="120.56" y2="147.1"/><line class="cls-5" x1="98.46" y1="163.96" x2="120.56" y2="163.96"/><line class="cls-4" x1="98.46" y1="181.77" x2="120.56" y2="181.77"/><line class="cls-4" x1="98.46" y1="197.7" x2="120.56" y2="197.7"/><line class="cls-4" x1="149.22" y1="128.76" x2="155.36" y2="128.76"/><line class="cls-5" x1="162.47" y1="128.76" x2="181.7" y2="128.76"/><line class="cls-4" x1="195.62" y1="128.76" x2="201.2" y2="128.76"/><line class="cls-4" x1="207.9" y1="128.76" x2="210.53" y2="128.76"/><line class="cls-4" x1="195.62" y1="147.1" x2="201.2" y2="147.1"/><line class="cls-5" x1="207.9" y1="147.1" x2="210.53" y2="147.1"/><line class="cls-4" x1="195.62" y1="181.77" x2="201.2" y2="181.77"/><line class="cls-5" x1="207.9" y1="181.77" x2="210.53" y2="181.77"/><line class="cls-4" x1="195.62" y1="163.96" x2="201.2" y2="163.96"/><line class="cls-4" x1="207.9" y1="163.96" x2="210.53" y2="163.96"/><line class="cls-4" x1="195.62" y1="195.07" x2="201.2" y2="195.07"/><line class="cls-4" x1="207.9" y1="195.07" x2="210.53" y2="195.07"/><line class="cls-5" x1="162.47" y1="163.96" x2="181.7" y2="163.96"/><line class="cls-5" x1="162.47" y1="197.7" x2="181.7" y2="197.7"/><line class="cls-4" x1="149.22" y1="147.1" x2="176.96" y2="147.1"/><line class="cls-4" x1="149.22" y1="163.96" x2="155.36" y2="163.96"/><line class="cls-4" x1="149.22" y1="181.77" x2="164.56" y2="181.77"/><line class="cls-4" x1="149.22" y1="197.7" x2="155.36" y2="197.7"/><line class="cls-4" x1="98.46" y1="100.36" x2="210.53" y2="100.36"/></svg>